# AST/ASF file generated using VICON BodyLanguage
# -----------------------------------------------
:version 1.10
:name VICON
:units
  mass 1.0
  length 0.45
  angle deg
:documentation
   .ast/.asf automatically generated from VICON data using
   VICON BodyBuilder and BodyLanguage model FoxedUp or BRILLIANT.MOD
:root
   order TX TY TZ RX RY RZ
   axis XYZ
   position 0 0 0  
   orientation 0 0 0 
:bonedata
  begin
     id 1 
     name lhipjoint
     direction 0.570549 -0.739093 0.358072 
     length 2.41801 
     axis 0 0 0  XYZ
  end
  begin
     id 2 
     name lfemur
     direction 0.34202 -0.939693 0  
     length 7.44434  
     axis 0 0 20  XYZ
    dof rx ry rz
    limits (-160.0 20.0)
           (-70.0 70.0)
           (-60.0 70.0)
  end
  begin
     id 3 
     name ltibia
     direction 0.34202 -0.939693 0   
     length 7.60047   
     axis 0 0 20   XYZ
    dof rx
    limits (-10.0 170.0)
  end
  begin
     id 4 
     name lfoot
     direction 0.0909041 -0.249757 0.964032   
     length 2.03437   
     axis -90 7.62852e-016 20   XYZ
    dof rx rz
    limits (-45.0 90.0)
           (-70.0 20.0)
  end
  begin
     id 5 
     name ltoes
     direction 1.53547e-011 -4.2174e-011 1   
     length 1.02054   
     axis -90 7.62852e-016 20   XYZ
    dof rx
    limits (-90.0 20.0)
  end
  begin
     id 6 
     name rhipjoint
     direction -0.558096 -0.746754 0.361784   
     length 2.3932  
     axis 0 0 0  XYZ 
  end
  begin
     id 7 
     name rfemur
     direction -0.34202 -0.939693 0   
     length 7.3886   
     axis 0 0 -20   XYZ
    dof rx ry rz
    limits (-160.0 20.0)
           (-70.0 70.0)
           (-70.0 60.0)
  end
  begin
     id 8 
     name rtibia
     direction -0.34202 -0.939693 0   
     length 7.4839   
     axis 0 0 -20   XYZ
    dof rx
    limits (-10.0 170.0)
 end
 begin
     id 9 
     name rfoot
     direction -0.114619 -0.314914 0.942174   
     length 2.25127  
     axis -90 -7.62852e-016 -20   XYZ
    dof rx rz
    limits (-45.0 90.0)
           (-20.0 70.0)
  end
  begin
     id 10 
     name rtoes
     direction -1.53518e-011 -4.21881e-011 1   
     length 1.11821   
     axis -90 -7.62852e-016 -20   XYZ
    dof rx
    limits (-90.0 20.0)
  end
  begin
     id 11 
     name lowerback
     direction -0.00902269 0.996426 -0.0839821   
     length 2.25052   
     axis 0 0 0   XYZ
    dof rx ry rz
    limits (-20.0 45.0)
           (-30.0 30.0)
           (-30.0 30.0)
  end
  begin
     id 12 
     name upperback
     direction 0.0370973 0.999169 -0.0168941   
     length 2.24876   
     axis 0 0 0   XYZ
    dof rx ry rz
    limits (-20.0 45.0)
           (-30.0 30.0)
           (-30.0 30.0)
  end
  begin
     id 13 
     name thorax
     direction 0.0402726 0.998931 0.0227027   
     length 2.26408   
     axis 0 0 0   XYZ
    dof rx ry rz
    limits (-20.0 45.0)
           (-30.0 30.0)
           (-30.0 30.0)
  end
  begin
     id 14 
     name lowerneck
     direction -0.0733697 0.98508 0.155675   
     length 1.58204   
     axis 0 0 0   XYZ
    dof rx ry rz
    limits (-20.0 45.0)
           (-30.0 30.0)
           (-30.0 30.0)
  end
  begin
     id 15 
     name upperneck
     direction 0.0426554 0.993501 -0.105526   
     length 1.61222   
     axis 0 0 0   XYZ
    dof rx ry rz
    limits (-20.0 45.0)
           (-30.0 30.0)
           (-30.0 30.0)
  end
  begin
     id 16
     name head
     direction 0.020792 0.998384 -0.0528868  
     length 1.61527  
     axis 0 0 0   XYZ
    dof rx ry rz
    limits (-20.0 45.0)
           (-30.0 30.0)
           (-30.0 30.0)
  end
  begin
     id 17 
     name lclavicle
     direction 0.967109 0.155462 -0.201325  
     length 3.59357  
     axis 0 0 0   XYZ
    dof ry rz
    limits (-20.0 10.0)
           (0.0 20.0)
  end
  begin
     id 18 
     name lhumerus
     direction 1 -4.48968e-011 2.38195e-027   
     length 5.38154   
     axis 180 -30 -90   XYZ
    dof rx ry rz
    limits (-60.0 90.0)
           (-90.0 90.0)
           (-90.0 90.0)
  end
  begin
     id 19
     name lradius
     direction 1 -4.48961e-011 4.85371e-027   
     length 3.33312   
     axis 180 -30 -90   XYZ
    dof rx
    limits (-10.0 170.0)
  end
  begin
     id 20
     name lwrist
     direction 1 -4.48961e-011 4.76515e-027   
     length 1.66656   
     axis -3.27502e-015 90 90   XYZ
    dof ry
    limits (-180.0 0.0)
 end
  begin
     id 21 
     name lhand
     direction 1 -4.48951e-011 9.53074e-027   
     length 0.710789   
     axis -6.08098e-015 90 90   XYZ
    dof rx rz
    limits (-90.0 90.0)
           (-45.0 45.0)
  end
  begin
     id 22 
     name lfingers
     direction 1 -4.48953e-011 1.90613e-026   
     length 0.573057   
     axis -1.21619e-014 90 90   XYZ
    dof rx
    limits (0.0 90.0)
  end
  begin
     id 23
     name lthumb
     direction 0.707107 -6.34973e-011 0.707107   
     length 0.822798   
     axis -90 45 -9.86923e-015   XYZ
    dof rx rz
    limits (-45.0 45.0)
           (-45.0 45.0)
  end
  begin
     id 24 
     name rclavicle
     direction -0.9585 0.265289 -0.104398   
     length 3.42039  
     axis 0 0 0   XYZ 
    dof ry rz
    limits (-10.0 20.0)
           (-20.0 0.0)
  end
  begin
     id 25 
     name rhumerus
     direction -1 -4.48977e-011 2.21478e-027  
     length 5.16954   
     axis 180 30 90   XYZ
    dof rx ry rz
    limits (-90.0 60.0)
           (-90.0 90.0)
           (-90.0 90.0)
  end
  begin
     id 26 
     name rradius
     direction -1 -4.48967e-011 5.63677e-027   
     length 3.38287   
     axis 180 30 90   XYZ
    dof rx
    limits (-10.0 170.0)
  end
  begin
     id 27 
     name rwrist
     direction -1 -4.48967e-011 4.76501e-027   
     length 1.69144   
     axis -3.27502e-015 -90 -90   XYZ
    dof ry
    limits (-180.0 0.0)
  end
  begin
     id 28
     name rhand
     direction -1 -4.48902e-011 9.53292e-027   
     length 0.817967   
     axis -6.08098e-015 -90 -90   XYZ
    dof rx rz
    limits (-90.0 90.0)
           (-45.0 45.0)
  end
  begin
     id 29
     name rfingers
     direction -1 -4.49012e-011 1.90561e-026   
     length 0.659466   
     axis -1.21619e-014 -90 -90   XYZ
    dof rx
    limits (0.0 90.0)
  end
  begin
     id 30
     name rthumb
     direction -0.707107 -6.34944e-011 0.707107   
     length 0.946865   
     axis -90 -45 9.86923e-015   XYZ
    dof rx rz
    limits (-45.0 45.0)
           (-45.0 45.0)
  end
:hierarchy
  begin
    root lhipjoint rhipjoint lowerback
    lhipjoint lfemur
    lfemur ltibia
    ltibia lfoot
    lfoot ltoes
    rhipjoint rfemur
    rfemur rtibia
    rtibia rfoot
    rfoot rtoes
    lowerback upperback
    upperback thorax
    thorax lowerneck lclavicle rclavicle
    lowerneck upperneck
    upperneck head
    lclavicle lhumerus
    lhumerus lradius
    lradius lwrist
    lwrist lhand lthumb
    lhand lfingers
    rclavicle rhumerus
    rhumerus rradius
    rradius rwrist
    rwrist rhand rthumb
    rhand rfingers
  end

#!OML:ASF F:\twosubjects\two\wednesday\Session 1\Justin1.ASF
:FULLY-SPECIFIED
:DEGREES
16
root -1.3907 17.8174 21.8271 -170.227 0.792423 -175.494
lowerback 3.4717 0.440264 3.209
upperback 0.771207 0.940937 3.48251
thorax -1.16645 0.545606 1.73451
lowerneck -15.7891 -5.10518 -12.7208
upperneck 11.3577 -4.64989 4.48768
head 6.45097 -2.43001 3.00942
rclavicle -4.17448e-015 2.22639e-014
rhumerus -32.1499 -17.6438 -75.1539
rradius 29.148
rwrist -7.96003
rhand -13.3804 20.0611
rfingers 7.12502
rthumb 12.7265 -9.53103
lclavicle -4.17448e-015 2.22639e-014
lhumerus -30.7381 13.9458 84.9468
lradius 27.351
lwrist -10.8888
lhand -2.20118 36.2982
lfingers 7.12502
lthumb 23.4804 64.8853
rfemur 10.3259 1.46222 28.5476
rtibia 4.77083e-014
rfoot -13.9867 2.41124
rtoes 6.86935
lfemur -40.3772 3.29254 -11.9227
ltibia 27.6153
lfoot -9.66707 3.32358
ltoes -13.7883
17
root -1.4081 17.8076 21.7479 -170.045 1.35085 -175.337
lowerback 3.74428 0.627776 3.25548
upperback 0.516928 1.20881 3.40164
thorax -1.57966 0.670017 1.60725
lowerneck -15.6128 -5.0486 -12.3124
upperneck 11.3552 -4.63944 4.17209
head 6.40222 -2.43392 2.84582
rclavicle -9.34288e-015 -1.82882e-014
rhumerus -32.6504 -17.679 -75.1063
rradius 29.2598
rwrist -8.14578
rhand -14.1361 19.5186
rfingers 7.12502
rthumb 11.9979 -10.1175
lclavicle -9.34288e-015 -1.82882e-014
lhumerus -31.148 13.7896 84.7549
lradius 27.2383
lwrist -10.7925
lhand -2.00604 36.4237
lfingers 7.12502
lthumb 23.6676 64.9867
rfemur 10.4159 1.95352 28.5424
rtibia -3.18055e-015
rfoot -13.6918 2.50674
rtoes 5.71465
lfemur -40.6447 3.28729 -11.6051
ltibia 27.1571
lfoot -9.65855 4.06963
ltoes -19.224
18
root -1.43475 17.8228 21.651 -170.085 1.48976 -175.817
lowerback 3.73147 0.547783 2.73371
upperback 0.371556 1.06608 3.31914
thorax -1.72809 0.592291 1.82077
lowerneck -14.6568 -4.812 -12.2736
upperneck 10.8139 -4.42567 4.00748
head 6.04792 -2.33685 2.82429
rclavicle 6.95746e-016 9.54166e-015
rhumerus -33.0921 -17.3426 -74.9095
rradius 29.4198
rwrist -8.70389
rhand -15.2296 19.135
rfingers 7.12502
rthumb 10.9433 -10.5598
lclavicle 6.95746e-016 9.54166e-015
lhumerus -31.8501 14.0927 84.5857
lradius 27.3123
lwrist -10.9958
lhand -1.67249 36.2528
lfingers 7.12502
lthumb 23.9875 64.7741
rfemur 10.7487 1.91345 27.844
rtibia -2.22639e-014
rfoot -13.541 2.90013
rtoes 6.46975
lfemur -40.3429 2.92731 -12.0567
ltibia 26.2183
lfoot -9.69998 4.52485
ltoes -22.1985
19
root -1.46068 17.8691 21.5499 -170.116 1.60084 -176.008
lowerback 3.55528 0.54942 2.56696
upperback 0.648185 1.03666 3.24347
thorax -1.34581 0.579961 1.84159
lowerneck -15.1999 -4.8246 -12.3283
upperneck 10.7771 -4.39267 4.20465
head 6.12813 -2.30339 2.89234
rclavicle -2.18663e-015 -5.56597e-015
rhumerus -32.68 -17.7704 -74.8187
rradius 29.4228
rwrist -8.97908
rhand -15.5042 19.6795
rfingers 7.12502
rthumb 10.6784 -10.0291
lclavicle -2.18663e-015 -5.56597e-015
lhumerus -31.5942 14.0648 84.6811
lradius 27.3851
lwrist -10.9677
lhand -1.52983 36.3373
lfingers 7.12502
lthumb 24.1243 64.8405
rfemur 11.0558 1.8991 27.4182
rtibia 6.36111e-015
rfoot -13.4033 3.50283
rtoes 10.0645
lfemur -40.0252 3.57968 -12.8294
ltibia 25.6284
lfoot -10.1328 4.28451
ltoes -26.5068
20
root -1.48491 17.8304 21.4574 -170.122 1.75453 -175.324
lowerback 3.62256 0.585831 3.20197
upperback 0.838514 1.13131 3.36991
thorax -1.18074 0.637597 1.61251
lowerneck -16.001 -4.9164 -12.2921
upperneck 11.2394 -4.4401 4.31445
head 6.41444 -2.3199 2.90573
rclavicle -1.85864e-014 -4.29375e-014
rhumerus -32.3208 -18.1871 -74.8488
rradius 29.3842
rwrist -8.95626
rhand -14.8058 19.6083
rfingers 7.12502
rthumb 11.352 -10.0644
lclavicle -1.85864e-014 -4.29375e-014
lhumerus -31.2337 13.9194 84.7251
lradius 27.2183
lwrist -10.8656
lhand -1.59698 36.4637
lfingers 7.12502
lthumb 24.0599 64.9755
rfemur 11.4599 2.0611 27.9877
rtibia 3.18055e-014
rfoot -13.3445 3.92264
rtoes 12.1013
lfemur -41.1582 0.762826 -10.0243
ltibia 24.9878
lfoot -9.96835 6.88058
ltoes -15.3819
21
root -1.50464 17.7992 21.371 -170.078 1.83301 -174.848
lowerback 3.68828 0.523945 3.46784
upperback 0.62317 1.09309 3.59062
thorax -1.43903 0.621607 1.69051
lowerneck -15.039 -4.76422 -12.2983
upperneck 11.0101 -4.32449 4.11637
head 6.16832 -2.28237 2.86859
rclavicle 4.47266e-015 -2.3059e-014
rhumerus -32.7954 -18.0266 -74.5693
rradius 29.4695
rwrist -8.93247
rhand -14.7675 19.4988
rfingers 7.12502
rthumb 11.389 -10.172
lclavicle 4.47266e-015 -2.3059e-014
lhumerus -31.815 14.1201 84.6029
lradius 26.9938
lwrist -11.1325
lhand -1.80174 36.1287
lfingers 7.12502
lthumb 23.8635 64.6662
rfemur 11.7798 2.11604 28.4109
rtibia 2.8625e-014
rfoot -13.2855 4.06495
rtoes 11.6617
lfemur -40.5771 2.15208 -10.4098
ltibia 24.5907
lfoot -9.99312 6.18856
ltoes -18.828
22
root -1.53181 17.7955 21.2764 -169.926 2.04384 -174.786
lowerback 3.68914 0.516601 3.47463
upperback 0.708177 1.08312 3.61081
thorax -1.35237 0.619282 1.7086
lowerneck -15.6197 -4.77595 -12.1685
upperneck 10.9821 -4.26139 3.9326
head 6.24304 -2.25324 2.78681
rclavicle 1.70955e-014 1.59028e-015
rhumerus -32.5093 -18.2233 -74.5054
rradius 29.4131
rwrist -9.04136
rhand -15.1566 19.8079
rfingers 7.12502
rthumb 11.0137 -9.8832
lclavicle 1.70955e-014 1.59028e-015
lhumerus -31.6562 14.5249 84.5485
lradius 26.7399
lwrist -11.455
lhand -1.93492 36.2873
lfingers 7.12502
lthumb 23.7358 64.8415
rfemur 11.9218 2.25844 28.3033
rtibia -1.27222e-014
rfoot -13.0659 4.23594
rtoes 11.7453
lfemur -40.2701 2.65716 -10.6918
ltibia 23.8884
lfoot -9.91396 6.30012
ltoes -18.2503
23
root -1.56535 17.7872 21.1714 -169.715 2.30662 -174.644
lowerback 3.58918 0.532281 3.70851
upperback 0.582109 1.10365 3.51415
thorax -1.41992 0.623543 1.47771
lowerneck -15.5438 -4.73459 -12.0478
upperneck 11.0432 -4.26976 4.0671
head 6.25037 -2.24621 2.8118
rclavicle -9.83984e-015 -2.74323e-014
rhumerus -32.7649 -18.3638 -74.494
rradius 29.4825
rwrist -9.2346
rhand -15.4869 19.5004
rfingers 7.12502
rthumb 10.6951 -10.2073
lclavicle -9.83984e-015 -2.74323e-014
lhumerus -31.8462 14.7184 84.2249
lradius 26.5165
lwrist -11.6612
lhand -1.87109 36.7015
lfingers 7.12502
lthumb 23.797 65.2477
rfemur 12.0656 2.47769 28.2331
rtibia 2.54444e-014
rfoot -12.8658 4.41643
rtoes 11.7911
lfemur -40.5653 2.6805 -10.6176
ltibia 23.9412
lfoot -10.3496 6.85799
ltoes -18.7264
